<mxfile host="Electron" modified="2024-03-28T19:52:18.459Z" agent="Mozilla/5.0 (Windows NT 10.0; Win64; x64) AppleWebKit/537.36 (KHTML, like Gecko) draw.io/22.0.3 Chrome/114.0.5735.289 Electron/25.8.4 Safari/537.36" etag="l9JzAoJIoroPV3wlWnuG" version="22.0.3" type="device">
  <diagram id="R2lEEEUBdFMjLlhIrx00" name="Page-1">
    <mxGraphModel dx="339" dy="398" grid="1" gridSize="10" guides="1" tooltips="1" connect="1" arrows="1" fold="1" page="1" pageScale="1" pageWidth="850" pageHeight="1100" math="0" shadow="0" extFonts="Permanent Marker^https://fonts.googleapis.com/css?family=Permanent+Marker">
      <root>
        <mxCell id="0" />
        <mxCell id="1" parent="0" />
        <mxCell id="hJiY_V8YvAr-VJmA7IlV-30" value="Materias" style="rounded=1;arcSize=10;whiteSpace=wrap;html=1;align=center;" parent="1" vertex="1">
          <mxGeometry x="565" y="550" width="120" height="40" as="geometry" />
        </mxCell>
        <mxCell id="hJiY_V8YvAr-VJmA7IlV-31" value="Administradores" style="rounded=1;arcSize=10;whiteSpace=wrap;html=1;align=center;" parent="1" vertex="1">
          <mxGeometry x="205" y="550" width="120" height="40" as="geometry" />
        </mxCell>
        <mxCell id="hJiY_V8YvAr-VJmA7IlV-32" value="Profesores" style="rounded=1;arcSize=10;whiteSpace=wrap;html=1;align=center;" parent="1" vertex="1">
          <mxGeometry x="965" y="550" width="120" height="40" as="geometry" />
        </mxCell>
        <mxCell id="hJiY_V8YvAr-VJmA7IlV-33" value="" style="shape=rhombus;perimeter=rhombusPerimeter;whiteSpace=wrap;html=1;align=center;" parent="1" vertex="1">
          <mxGeometry x="765" y="540" width="120" height="60" as="geometry" />
        </mxCell>
        <mxCell id="hJiY_V8YvAr-VJmA7IlV-34" value="" style="endArrow=none;html=1;rounded=0;exitX=1;exitY=0.5;exitDx=0;exitDy=0;entryX=0;entryY=0.5;entryDx=0;entryDy=0;" parent="1" source="hJiY_V8YvAr-VJmA7IlV-30" target="hJiY_V8YvAr-VJmA7IlV-33" edge="1">
          <mxGeometry relative="1" as="geometry">
            <mxPoint x="555" y="660" as="sourcePoint" />
            <mxPoint x="715" y="660" as="targetPoint" />
          </mxGeometry>
        </mxCell>
        <mxCell id="hJiY_V8YvAr-VJmA7IlV-35" value="" style="endArrow=none;html=1;rounded=0;entryX=0;entryY=0.5;entryDx=0;entryDy=0;exitX=1;exitY=0.5;exitDx=0;exitDy=0;" parent="1" source="hJiY_V8YvAr-VJmA7IlV-33" target="hJiY_V8YvAr-VJmA7IlV-32" edge="1">
          <mxGeometry relative="1" as="geometry">
            <mxPoint x="715" y="710" as="sourcePoint" />
            <mxPoint x="715" y="650" as="targetPoint" />
          </mxGeometry>
        </mxCell>
        <mxCell id="hJiY_V8YvAr-VJmA7IlV-36" value="(1,N)" style="text;html=1;align=center;verticalAlign=middle;resizable=0;points=[];autosize=1;strokeColor=none;fillColor=none;" parent="1" vertex="1">
          <mxGeometry x="915" y="570" width="50" height="30" as="geometry" />
        </mxCell>
        <mxCell id="hJiY_V8YvAr-VJmA7IlV-37" value="(1,N)&lt;br&gt;" style="text;html=1;align=center;verticalAlign=middle;resizable=0;points=[];autosize=1;strokeColor=none;fillColor=none;" parent="1" vertex="1">
          <mxGeometry x="685" y="570" width="50" height="30" as="geometry" />
        </mxCell>
        <mxCell id="hJiY_V8YvAr-VJmA7IlV-38" value="" style="shape=rhombus;perimeter=rhombusPerimeter;whiteSpace=wrap;html=1;align=center;" parent="1" vertex="1">
          <mxGeometry x="385" y="540" width="120" height="60" as="geometry" />
        </mxCell>
        <mxCell id="hJiY_V8YvAr-VJmA7IlV-39" value="" style="endArrow=none;html=1;rounded=0;exitX=0;exitY=0.5;exitDx=0;exitDy=0;entryX=1;entryY=0.5;entryDx=0;entryDy=0;" parent="1" source="hJiY_V8YvAr-VJmA7IlV-30" target="hJiY_V8YvAr-VJmA7IlV-38" edge="1">
          <mxGeometry relative="1" as="geometry">
            <mxPoint x="715" y="600" as="sourcePoint" />
            <mxPoint x="715" y="650" as="targetPoint" />
          </mxGeometry>
        </mxCell>
        <mxCell id="hJiY_V8YvAr-VJmA7IlV-40" value="" style="endArrow=none;html=1;rounded=0;exitX=1;exitY=0.5;exitDx=0;exitDy=0;entryX=0;entryY=0.5;entryDx=0;entryDy=0;" parent="1" source="hJiY_V8YvAr-VJmA7IlV-31" target="hJiY_V8YvAr-VJmA7IlV-38" edge="1">
          <mxGeometry relative="1" as="geometry">
            <mxPoint x="725" y="610" as="sourcePoint" />
            <mxPoint x="725" y="660" as="targetPoint" />
          </mxGeometry>
        </mxCell>
        <mxCell id="hJiY_V8YvAr-VJmA7IlV-41" value="Clases" style="rounded=1;arcSize=10;whiteSpace=wrap;html=1;align=center;" parent="1" vertex="1">
          <mxGeometry x="765" y="440" width="120" height="40" as="geometry" />
        </mxCell>
        <mxCell id="hJiY_V8YvAr-VJmA7IlV-42" value="" style="endArrow=none;html=1;rounded=0;exitX=0.5;exitY=0;exitDx=0;exitDy=0;entryX=0.5;entryY=1;entryDx=0;entryDy=0;" parent="1" source="hJiY_V8YvAr-VJmA7IlV-33" target="hJiY_V8YvAr-VJmA7IlV-41" edge="1">
          <mxGeometry relative="1" as="geometry">
            <mxPoint x="355" y="680" as="sourcePoint" />
            <mxPoint x="515" y="680" as="targetPoint" />
          </mxGeometry>
        </mxCell>
        <mxCell id="hJiY_V8YvAr-VJmA7IlV-43" value="(1,N)" style="text;html=1;align=center;verticalAlign=middle;resizable=0;points=[];autosize=1;strokeColor=none;fillColor=none;" parent="1" vertex="1">
          <mxGeometry x="325" y="570" width="50" height="30" as="geometry" />
        </mxCell>
        <mxCell id="hJiY_V8YvAr-VJmA7IlV-44" value="(1,1)" style="text;html=1;align=center;verticalAlign=middle;resizable=0;points=[];autosize=1;strokeColor=none;fillColor=none;" parent="1" vertex="1">
          <mxGeometry x="515" y="570" width="50" height="30" as="geometry" />
        </mxCell>
        <mxCell id="hJiY_V8YvAr-VJmA7IlV-45" value="(N,N)" style="text;html=1;align=center;verticalAlign=middle;resizable=0;points=[];autosize=1;strokeColor=none;fillColor=none;" parent="1" vertex="1">
          <mxGeometry x="800" y="600" width="50" height="30" as="geometry" />
        </mxCell>
        <mxCell id="hJiY_V8YvAr-VJmA7IlV-46" value="(1,N)" style="text;html=1;align=center;verticalAlign=middle;resizable=0;points=[];autosize=1;strokeColor=none;fillColor=none;" parent="1" vertex="1">
          <mxGeometry x="420" y="600" width="50" height="30" as="geometry" />
        </mxCell>
        <mxCell id="hJiY_V8YvAr-VJmA7IlV-47" value="Codigo" style="ellipse;whiteSpace=wrap;html=1;align=center;fontStyle=4;" parent="1" vertex="1">
          <mxGeometry x="150" y="515" width="55" height="30" as="geometry" />
        </mxCell>
        <mxCell id="hJiY_V8YvAr-VJmA7IlV-48" value="Nombre" style="ellipse;whiteSpace=wrap;html=1;align=center;" parent="1" vertex="1">
          <mxGeometry x="150" y="490" width="55" height="20" as="geometry" />
        </mxCell>
        <mxCell id="hJiY_V8YvAr-VJmA7IlV-49" value="Apellido" style="ellipse;whiteSpace=wrap;html=1;align=center;" parent="1" vertex="1">
          <mxGeometry x="170" y="455" width="55" height="25" as="geometry" />
        </mxCell>
        <mxCell id="hJiY_V8YvAr-VJmA7IlV-50" value="Mail" style="ellipse;whiteSpace=wrap;html=1;align=center;" parent="1" vertex="1">
          <mxGeometry x="320" y="490" width="45" height="20" as="geometry" />
        </mxCell>
        <mxCell id="hJiY_V8YvAr-VJmA7IlV-51" value="Contraseña" style="ellipse;whiteSpace=wrap;html=1;align=center;" parent="1" vertex="1">
          <mxGeometry x="325" y="515" width="75" height="25" as="geometry" />
        </mxCell>
        <mxCell id="hJiY_V8YvAr-VJmA7IlV-52" value="CODIGO" style="ellipse;whiteSpace=wrap;html=1;align=center;fontStyle=4;" parent="1" vertex="1">
          <mxGeometry x="910" y="515" width="55" height="25" as="geometry" />
        </mxCell>
        <mxCell id="hJiY_V8YvAr-VJmA7IlV-53" value="Nombre" style="ellipse;whiteSpace=wrap;html=1;align=center;" parent="1" vertex="1">
          <mxGeometry x="930" y="470" width="60" height="30" as="geometry" />
        </mxCell>
        <mxCell id="hJiY_V8YvAr-VJmA7IlV-54" value="Apellido" style="ellipse;whiteSpace=wrap;html=1;align=center;" parent="1" vertex="1">
          <mxGeometry x="990" y="450" width="60" height="30" as="geometry" />
        </mxCell>
        <mxCell id="hJiY_V8YvAr-VJmA7IlV-55" value="Mail" style="ellipse;whiteSpace=wrap;html=1;align=center;" parent="1" vertex="1">
          <mxGeometry x="1085" y="482.5" width="40" height="30" as="geometry" />
        </mxCell>
        <mxCell id="hJiY_V8YvAr-VJmA7IlV-56" value="Contraseña" style="ellipse;whiteSpace=wrap;html=1;align=center;" parent="1" vertex="1">
          <mxGeometry x="1100" y="512.5" width="70" height="30" as="geometry" />
        </mxCell>
        <mxCell id="hJiY_V8YvAr-VJmA7IlV-57" value="Nombre" style="ellipse;whiteSpace=wrap;html=1;align=center;" parent="1" vertex="1">
          <mxGeometry x="580" y="485" width="57" height="30" as="geometry" />
        </mxCell>
        <mxCell id="hJiY_V8YvAr-VJmA7IlV-58" value="CODIGO" style="ellipse;whiteSpace=wrap;html=1;align=center;fontStyle=4;" parent="1" vertex="1">
          <mxGeometry x="525" y="505" width="55" height="30" as="geometry" />
        </mxCell>
        <mxCell id="hJiY_V8YvAr-VJmA7IlV-59" value="id_carrera" style="ellipse;whiteSpace=wrap;html=1;align=center;" parent="1" vertex="1">
          <mxGeometry x="647" y="485" width="66" height="30" as="geometry" />
        </mxCell>
        <mxCell id="hJiY_V8YvAr-VJmA7IlV-60" value="CODIGO_PROFESOR" style="ellipse;whiteSpace=wrap;html=1;align=center;fontStyle=4;" parent="1" vertex="1">
          <mxGeometry x="620" y="410" width="137" height="30" as="geometry" />
        </mxCell>
        <mxCell id="hJiY_V8YvAr-VJmA7IlV-61" value="CODIGO_MATERIA" style="ellipse;whiteSpace=wrap;html=1;align=center;fontStyle=4;" parent="1" vertex="1">
          <mxGeometry x="680" y="370" width="110" height="30" as="geometry" />
        </mxCell>
        <mxCell id="hJiY_V8YvAr-VJmA7IlV-62" value="Fecha" style="ellipse;whiteSpace=wrap;html=1;align=center;" parent="1" vertex="1">
          <mxGeometry x="765" y="330" width="55" height="30" as="geometry" />
        </mxCell>
        <mxCell id="hJiY_V8YvAr-VJmA7IlV-63" value="Hora" style="ellipse;whiteSpace=wrap;html=1;align=center;" parent="1" vertex="1">
          <mxGeometry x="820" y="340" width="40" height="30" as="geometry" />
        </mxCell>
        <mxCell id="hJiY_V8YvAr-VJmA7IlV-64" value="Temas" style="ellipse;whiteSpace=wrap;html=1;align=center;" parent="1" vertex="1">
          <mxGeometry x="860" y="350" width="50" height="30" as="geometry" />
        </mxCell>
        <mxCell id="hJiY_V8YvAr-VJmA7IlV-66" value="Novedad" style="ellipse;whiteSpace=wrap;html=1;align=center;dashed=1;" parent="1" vertex="1">
          <mxGeometry x="885" y="380" width="55" height="30" as="geometry" />
        </mxCell>
        <mxCell id="hJiY_V8YvAr-VJmA7IlV-71" value="" style="endArrow=none;html=1;rounded=0;exitX=1;exitY=1;exitDx=0;exitDy=0;entryX=0.12;entryY=0.012;entryDx=0;entryDy=0;entryPerimeter=0;" parent="1" source="hJiY_V8YvAr-VJmA7IlV-47" target="hJiY_V8YvAr-VJmA7IlV-31" edge="1">
          <mxGeometry relative="1" as="geometry">
            <mxPoint x="230" y="520" as="sourcePoint" />
            <mxPoint x="390" y="520" as="targetPoint" />
          </mxGeometry>
        </mxCell>
        <mxCell id="hJiY_V8YvAr-VJmA7IlV-72" value="" style="endArrow=none;html=1;rounded=0;exitX=1;exitY=1;exitDx=0;exitDy=0;entryX=0.25;entryY=0;entryDx=0;entryDy=0;" parent="1" source="hJiY_V8YvAr-VJmA7IlV-48" target="hJiY_V8YvAr-VJmA7IlV-31" edge="1">
          <mxGeometry relative="1" as="geometry">
            <mxPoint x="218" y="546" as="sourcePoint" />
            <mxPoint x="229" y="560" as="targetPoint" />
          </mxGeometry>
        </mxCell>
        <mxCell id="hJiY_V8YvAr-VJmA7IlV-73" value="" style="endArrow=none;html=1;rounded=0;exitX=0.761;exitY=0.891;exitDx=0;exitDy=0;exitPerimeter=0;entryX=0.367;entryY=-0.032;entryDx=0;entryDy=0;entryPerimeter=0;" parent="1" source="hJiY_V8YvAr-VJmA7IlV-49" target="hJiY_V8YvAr-VJmA7IlV-31" edge="1">
          <mxGeometry relative="1" as="geometry">
            <mxPoint x="236" y="506" as="sourcePoint" />
            <mxPoint x="260" y="540" as="targetPoint" />
          </mxGeometry>
        </mxCell>
        <mxCell id="hJiY_V8YvAr-VJmA7IlV-74" value="" style="endArrow=none;html=1;rounded=0;exitX=0;exitY=1;exitDx=0;exitDy=0;entryX=0.671;entryY=0.001;entryDx=0;entryDy=0;entryPerimeter=0;" parent="1" source="hJiY_V8YvAr-VJmA7IlV-50" target="hJiY_V8YvAr-VJmA7IlV-31" edge="1">
          <mxGeometry relative="1" as="geometry">
            <mxPoint x="236" y="506" as="sourcePoint" />
            <mxPoint x="245" y="560" as="targetPoint" />
          </mxGeometry>
        </mxCell>
        <mxCell id="hJiY_V8YvAr-VJmA7IlV-75" value="" style="endArrow=none;html=1;rounded=0;exitX=0;exitY=1;exitDx=0;exitDy=0;entryX=0.924;entryY=0.011;entryDx=0;entryDy=0;entryPerimeter=0;" parent="1" source="hJiY_V8YvAr-VJmA7IlV-51" target="hJiY_V8YvAr-VJmA7IlV-31" edge="1">
          <mxGeometry relative="1" as="geometry">
            <mxPoint x="218" y="546" as="sourcePoint" />
            <mxPoint x="229" y="560" as="targetPoint" />
          </mxGeometry>
        </mxCell>
        <mxCell id="hJiY_V8YvAr-VJmA7IlV-76" value="" style="endArrow=none;html=1;rounded=0;exitX=0.745;exitY=0.933;exitDx=0;exitDy=0;exitPerimeter=0;entryX=0.186;entryY=-0.005;entryDx=0;entryDy=0;entryPerimeter=0;" parent="1" source="hJiY_V8YvAr-VJmA7IlV-58" target="hJiY_V8YvAr-VJmA7IlV-30" edge="1">
          <mxGeometry relative="1" as="geometry">
            <mxPoint x="570" y="540" as="sourcePoint" />
            <mxPoint x="730" y="540" as="targetPoint" />
          </mxGeometry>
        </mxCell>
        <mxCell id="hJiY_V8YvAr-VJmA7IlV-77" value="" style="endArrow=none;html=1;rounded=0;exitX=0.5;exitY=1;exitDx=0;exitDy=0;entryX=0.5;entryY=0;entryDx=0;entryDy=0;" parent="1" source="hJiY_V8YvAr-VJmA7IlV-57" target="hJiY_V8YvAr-VJmA7IlV-30" edge="1">
          <mxGeometry relative="1" as="geometry">
            <mxPoint x="576" y="543" as="sourcePoint" />
            <mxPoint x="597" y="560" as="targetPoint" />
          </mxGeometry>
        </mxCell>
        <mxCell id="hJiY_V8YvAr-VJmA7IlV-78" value="" style="endArrow=none;html=1;rounded=0;exitX=0.281;exitY=0.981;exitDx=0;exitDy=0;entryX=0.71;entryY=-0.004;entryDx=0;entryDy=0;entryPerimeter=0;exitPerimeter=0;" parent="1" source="hJiY_V8YvAr-VJmA7IlV-59" target="hJiY_V8YvAr-VJmA7IlV-30" edge="1">
          <mxGeometry relative="1" as="geometry">
            <mxPoint x="635" y="540" as="sourcePoint" />
            <mxPoint x="635" y="560" as="targetPoint" />
          </mxGeometry>
        </mxCell>
        <mxCell id="hJiY_V8YvAr-VJmA7IlV-79" value="" style="endArrow=none;html=1;rounded=0;exitX=1;exitY=0.5;exitDx=0;exitDy=0;entryX=0.12;entryY=0.012;entryDx=0;entryDy=0;entryPerimeter=0;" parent="1" source="hJiY_V8YvAr-VJmA7IlV-60" target="hJiY_V8YvAr-VJmA7IlV-41" edge="1">
          <mxGeometry relative="1" as="geometry">
            <mxPoint x="760" y="410" as="sourcePoint" />
            <mxPoint x="920" y="410" as="targetPoint" />
          </mxGeometry>
        </mxCell>
        <mxCell id="hJiY_V8YvAr-VJmA7IlV-80" value="" style="endArrow=none;html=1;rounded=0;exitX=1;exitY=1;exitDx=0;exitDy=0;entryX=0.25;entryY=0;entryDx=0;entryDy=0;" parent="1" source="hJiY_V8YvAr-VJmA7IlV-61" target="hJiY_V8YvAr-VJmA7IlV-41" edge="1">
          <mxGeometry relative="1" as="geometry">
            <mxPoint x="767" y="435" as="sourcePoint" />
            <mxPoint x="805" y="450" as="targetPoint" />
          </mxGeometry>
        </mxCell>
        <mxCell id="hJiY_V8YvAr-VJmA7IlV-81" value="" style="endArrow=none;html=1;rounded=0;exitX=0.629;exitY=0.987;exitDx=0;exitDy=0;entryX=0.357;entryY=-0.014;entryDx=0;entryDy=0;entryPerimeter=0;exitPerimeter=0;" parent="1" source="hJiY_V8YvAr-VJmA7IlV-62" target="hJiY_V8YvAr-VJmA7IlV-41" edge="1">
          <mxGeometry relative="1" as="geometry">
            <mxPoint x="800" y="395" as="sourcePoint" />
            <mxPoint x="805" y="450" as="targetPoint" />
          </mxGeometry>
        </mxCell>
        <mxCell id="hJiY_V8YvAr-VJmA7IlV-82" value="" style="endArrow=none;html=1;rounded=0;exitX=0.347;exitY=0.971;exitDx=0;exitDy=0;entryX=0.5;entryY=0;entryDx=0;entryDy=0;exitPerimeter=0;" parent="1" source="hJiY_V8YvAr-VJmA7IlV-63" target="hJiY_V8YvAr-VJmA7IlV-41" edge="1">
          <mxGeometry relative="1" as="geometry">
            <mxPoint x="803" y="370" as="sourcePoint" />
            <mxPoint x="818" y="449" as="targetPoint" />
          </mxGeometry>
        </mxCell>
        <mxCell id="hJiY_V8YvAr-VJmA7IlV-85" value="" style="endArrow=none;html=1;rounded=0;exitX=0.269;exitY=0.94;exitDx=0;exitDy=0;entryX=0.681;entryY=0.012;entryDx=0;entryDy=0;entryPerimeter=0;exitPerimeter=0;" parent="1" source="hJiY_V8YvAr-VJmA7IlV-64" target="hJiY_V8YvAr-VJmA7IlV-41" edge="1">
          <mxGeometry relative="1" as="geometry">
            <mxPoint x="848" y="366" as="sourcePoint" />
            <mxPoint x="835" y="450" as="targetPoint" />
          </mxGeometry>
        </mxCell>
        <mxCell id="hJiY_V8YvAr-VJmA7IlV-86" value="" style="endArrow=none;html=1;rounded=0;exitX=0;exitY=1;exitDx=0;exitDy=0;entryX=0.824;entryY=-0.01;entryDx=0;entryDy=0;entryPerimeter=0;" parent="1" source="hJiY_V8YvAr-VJmA7IlV-66" target="hJiY_V8YvAr-VJmA7IlV-41" edge="1">
          <mxGeometry relative="1" as="geometry">
            <mxPoint x="880" y="385" as="sourcePoint" />
            <mxPoint x="857" y="450" as="targetPoint" />
          </mxGeometry>
        </mxCell>
        <mxCell id="hJiY_V8YvAr-VJmA7IlV-87" value="" style="endArrow=none;html=1;rounded=0;exitX=1;exitY=1;exitDx=0;exitDy=0;entryX=0.094;entryY=0.002;entryDx=0;entryDy=0;entryPerimeter=0;" parent="1" source="hJiY_V8YvAr-VJmA7IlV-52" target="hJiY_V8YvAr-VJmA7IlV-32" edge="1">
          <mxGeometry relative="1" as="geometry">
            <mxPoint x="990" y="530" as="sourcePoint" />
            <mxPoint x="1150" y="530" as="targetPoint" />
          </mxGeometry>
        </mxCell>
        <mxCell id="hJiY_V8YvAr-VJmA7IlV-88" value="" style="endArrow=none;html=1;rounded=0;exitX=1;exitY=1;exitDx=0;exitDy=0;entryX=0.25;entryY=0;entryDx=0;entryDy=0;" parent="1" source="hJiY_V8YvAr-VJmA7IlV-53" target="hJiY_V8YvAr-VJmA7IlV-32" edge="1">
          <mxGeometry relative="1" as="geometry">
            <mxPoint x="978" y="551" as="sourcePoint" />
            <mxPoint x="1005" y="560" as="targetPoint" />
          </mxGeometry>
        </mxCell>
        <mxCell id="hJiY_V8YvAr-VJmA7IlV-89" value="" style="endArrow=none;html=1;rounded=0;exitX=0.5;exitY=1;exitDx=0;exitDy=0;entryX=0.5;entryY=0;entryDx=0;entryDy=0;" parent="1" source="hJiY_V8YvAr-VJmA7IlV-54" target="hJiY_V8YvAr-VJmA7IlV-32" edge="1">
          <mxGeometry relative="1" as="geometry">
            <mxPoint x="996" y="511" as="sourcePoint" />
            <mxPoint x="1020" y="560" as="targetPoint" />
          </mxGeometry>
        </mxCell>
        <mxCell id="hJiY_V8YvAr-VJmA7IlV-90" value="" style="endArrow=none;html=1;rounded=0;exitX=0;exitY=1;exitDx=0;exitDy=0;entryX=0.75;entryY=0;entryDx=0;entryDy=0;" parent="1" source="hJiY_V8YvAr-VJmA7IlV-55" target="hJiY_V8YvAr-VJmA7IlV-32" edge="1">
          <mxGeometry relative="1" as="geometry">
            <mxPoint x="1035" y="490" as="sourcePoint" />
            <mxPoint x="1035" y="560" as="targetPoint" />
          </mxGeometry>
        </mxCell>
        <mxCell id="hJiY_V8YvAr-VJmA7IlV-91" value="" style="endArrow=none;html=1;rounded=0;exitX=0;exitY=1;exitDx=0;exitDy=0;entryX=0.962;entryY=0.024;entryDx=0;entryDy=0;entryPerimeter=0;" parent="1" source="hJiY_V8YvAr-VJmA7IlV-56" target="hJiY_V8YvAr-VJmA7IlV-32" edge="1">
          <mxGeometry relative="1" as="geometry">
            <mxPoint x="1084" y="511" as="sourcePoint" />
            <mxPoint x="1065" y="560" as="targetPoint" />
          </mxGeometry>
        </mxCell>
        <mxCell id="s2HehjkY-TPH75RVqe5m-1" value="" style="shape=rhombus;perimeter=rhombusPerimeter;whiteSpace=wrap;html=1;align=center;" vertex="1" parent="1">
          <mxGeometry x="565" y="680" width="120" height="60" as="geometry" />
        </mxCell>
        <mxCell id="s2HehjkY-TPH75RVqe5m-2" value="Carreras" style="rounded=1;arcSize=10;whiteSpace=wrap;html=1;align=center;" vertex="1" parent="1">
          <mxGeometry x="565" y="820" width="120" height="40" as="geometry" />
        </mxCell>
        <mxCell id="s2HehjkY-TPH75RVqe5m-5" value="" style="endArrow=none;html=1;rounded=0;exitX=0.5;exitY=1;exitDx=0;exitDy=0;entryX=0.5;entryY=0;entryDx=0;entryDy=0;" edge="1" parent="1" source="hJiY_V8YvAr-VJmA7IlV-30" target="s2HehjkY-TPH75RVqe5m-1">
          <mxGeometry relative="1" as="geometry">
            <mxPoint x="530" y="670" as="sourcePoint" />
            <mxPoint x="690" y="670" as="targetPoint" />
          </mxGeometry>
        </mxCell>
        <mxCell id="s2HehjkY-TPH75RVqe5m-6" value="" style="endArrow=none;html=1;rounded=0;exitX=0.5;exitY=1;exitDx=0;exitDy=0;entryX=0.5;entryY=0;entryDx=0;entryDy=0;" edge="1" parent="1" source="s2HehjkY-TPH75RVqe5m-1" target="s2HehjkY-TPH75RVqe5m-2">
          <mxGeometry relative="1" as="geometry">
            <mxPoint x="635" y="600" as="sourcePoint" />
            <mxPoint x="635" y="690" as="targetPoint" />
          </mxGeometry>
        </mxCell>
        <mxCell id="s2HehjkY-TPH75RVqe5m-7" value="(1,1)" style="text;html=1;align=center;verticalAlign=middle;resizable=0;points=[];autosize=1;strokeColor=none;fillColor=none;" vertex="1" parent="1">
          <mxGeometry x="619" y="590" width="50" height="30" as="geometry" />
        </mxCell>
        <mxCell id="s2HehjkY-TPH75RVqe5m-8" value="(1,N)&lt;br&gt;" style="text;html=1;align=center;verticalAlign=middle;resizable=0;points=[];autosize=1;strokeColor=none;fillColor=none;" vertex="1" parent="1">
          <mxGeometry x="619" y="790" width="50" height="30" as="geometry" />
        </mxCell>
        <mxCell id="s2HehjkY-TPH75RVqe5m-9" value="(1,N)" style="text;html=1;align=center;verticalAlign=middle;resizable=0;points=[];autosize=1;strokeColor=none;fillColor=none;" vertex="1" parent="1">
          <mxGeometry x="690" y="695" width="50" height="30" as="geometry" />
        </mxCell>
        <mxCell id="s2HehjkY-TPH75RVqe5m-10" value="Dni" style="ellipse;whiteSpace=wrap;html=1;align=center;" vertex="1" parent="1">
          <mxGeometry x="230" y="450" width="40" height="20" as="geometry" />
        </mxCell>
        <mxCell id="s2HehjkY-TPH75RVqe5m-11" value="" style="endArrow=none;html=1;rounded=0;exitX=0.5;exitY=1;exitDx=0;exitDy=0;" edge="1" parent="1" source="s2HehjkY-TPH75RVqe5m-10">
          <mxGeometry relative="1" as="geometry">
            <mxPoint x="270" y="510" as="sourcePoint" />
            <mxPoint x="260" y="550" as="targetPoint" />
          </mxGeometry>
        </mxCell>
        <mxCell id="s2HehjkY-TPH75RVqe5m-12" value="Cargo" style="ellipse;whiteSpace=wrap;html=1;align=center;" vertex="1" parent="1">
          <mxGeometry x="270" y="475" width="50" height="17.5" as="geometry" />
        </mxCell>
        <mxCell id="s2HehjkY-TPH75RVqe5m-13" value="" style="endArrow=none;html=1;rounded=0;exitX=0.283;exitY=0.992;exitDx=0;exitDy=0;exitPerimeter=0;entryX=0.562;entryY=0.011;entryDx=0;entryDy=0;entryPerimeter=0;" edge="1" parent="1" source="s2HehjkY-TPH75RVqe5m-12" target="hJiY_V8YvAr-VJmA7IlV-31">
          <mxGeometry relative="1" as="geometry">
            <mxPoint x="270" y="520" as="sourcePoint" />
            <mxPoint x="430" y="520" as="targetPoint" />
          </mxGeometry>
        </mxCell>
        <mxCell id="s2HehjkY-TPH75RVqe5m-14" value="codigo_adm" style="ellipse;whiteSpace=wrap;html=1;align=center;" vertex="1" parent="1">
          <mxGeometry x="691" y="515" width="69" height="25" as="geometry" />
        </mxCell>
        <mxCell id="s2HehjkY-TPH75RVqe5m-15" value="" style="endArrow=none;html=1;rounded=0;exitX=0;exitY=0.5;exitDx=0;exitDy=0;entryX=0.905;entryY=-0.018;entryDx=0;entryDy=0;entryPerimeter=0;" edge="1" parent="1" source="s2HehjkY-TPH75RVqe5m-14" target="hJiY_V8YvAr-VJmA7IlV-30">
          <mxGeometry relative="1" as="geometry">
            <mxPoint x="667" y="521" as="sourcePoint" />
            <mxPoint x="652" y="558" as="targetPoint" />
          </mxGeometry>
        </mxCell>
        <mxCell id="s2HehjkY-TPH75RVqe5m-16" value="ID" style="ellipse;whiteSpace=wrap;html=1;align=center;fontStyle=4;" vertex="1" parent="1">
          <mxGeometry x="534.5" y="870" width="36" height="30" as="geometry" />
        </mxCell>
        <mxCell id="s2HehjkY-TPH75RVqe5m-17" value="Tituto_abreviado" style="ellipse;whiteSpace=wrap;html=1;align=center;" vertex="1" parent="1">
          <mxGeometry x="575" y="890" width="100" height="30" as="geometry" />
        </mxCell>
        <mxCell id="s2HehjkY-TPH75RVqe5m-18" value="Descripcion" style="ellipse;whiteSpace=wrap;html=1;align=center;" vertex="1" parent="1">
          <mxGeometry x="666.5" y="870" width="71" height="30" as="geometry" />
        </mxCell>
        <mxCell id="s2HehjkY-TPH75RVqe5m-19" value="" style="endArrow=none;html=1;rounded=0;exitX=1;exitY=0;exitDx=0;exitDy=0;entryX=0.25;entryY=1;entryDx=0;entryDy=0;" edge="1" parent="1" source="s2HehjkY-TPH75RVqe5m-16" target="s2HehjkY-TPH75RVqe5m-2">
          <mxGeometry relative="1" as="geometry">
            <mxPoint x="580" y="940" as="sourcePoint" />
            <mxPoint x="740" y="940" as="targetPoint" />
          </mxGeometry>
        </mxCell>
        <mxCell id="s2HehjkY-TPH75RVqe5m-20" value="" style="endArrow=none;html=1;rounded=0;exitX=0.5;exitY=0;exitDx=0;exitDy=0;entryX=0.5;entryY=1;entryDx=0;entryDy=0;" edge="1" parent="1" source="s2HehjkY-TPH75RVqe5m-17" target="s2HehjkY-TPH75RVqe5m-2">
          <mxGeometry relative="1" as="geometry">
            <mxPoint x="582" y="884" as="sourcePoint" />
            <mxPoint x="605" y="870" as="targetPoint" />
          </mxGeometry>
        </mxCell>
        <mxCell id="s2HehjkY-TPH75RVqe5m-21" value="" style="endArrow=none;html=1;rounded=0;exitX=0;exitY=0;exitDx=0;exitDy=0;entryX=0.75;entryY=1;entryDx=0;entryDy=0;" edge="1" parent="1" source="s2HehjkY-TPH75RVqe5m-18" target="s2HehjkY-TPH75RVqe5m-2">
          <mxGeometry relative="1" as="geometry">
            <mxPoint x="582" y="884" as="sourcePoint" />
            <mxPoint x="605" y="870" as="targetPoint" />
          </mxGeometry>
        </mxCell>
        <mxCell id="s2HehjkY-TPH75RVqe5m-22" value="Comisión" style="ellipse;whiteSpace=wrap;html=1;align=center;" vertex="1" parent="1">
          <mxGeometry x="905" y="415" width="60" height="20" as="geometry" />
        </mxCell>
        <mxCell id="s2HehjkY-TPH75RVqe5m-24" value="" style="endArrow=none;html=1;rounded=0;exitX=0;exitY=0.5;exitDx=0;exitDy=0;entryX=0.958;entryY=0;entryDx=0;entryDy=0;entryPerimeter=0;" edge="1" parent="1" source="s2HehjkY-TPH75RVqe5m-22" target="hJiY_V8YvAr-VJmA7IlV-41">
          <mxGeometry relative="1" as="geometry">
            <mxPoint x="903" y="416" as="sourcePoint" />
            <mxPoint x="874" y="450" as="targetPoint" />
          </mxGeometry>
        </mxCell>
        <mxCell id="s2HehjkY-TPH75RVqe5m-25" value="Dni" style="ellipse;whiteSpace=wrap;html=1;align=center;" vertex="1" parent="1">
          <mxGeometry x="1060" y="450" width="40" height="30" as="geometry" />
        </mxCell>
        <mxCell id="s2HehjkY-TPH75RVqe5m-26" value="" style="endArrow=none;html=1;rounded=0;exitX=0;exitY=1;exitDx=0;exitDy=0;" edge="1" parent="1" source="s2HehjkY-TPH75RVqe5m-25">
          <mxGeometry relative="1" as="geometry">
            <mxPoint x="1030" y="490" as="sourcePoint" />
            <mxPoint x="1040" y="550" as="targetPoint" />
          </mxGeometry>
        </mxCell>
      </root>
    </mxGraphModel>
  </diagram>
</mxfile>
